Coordinates
version=1
nRows=22
nColumns=24
inDegrees=yes

Units are S.I. units (second, meters, Newtons, ...)
Angles are in degrees.

endheader
time	pelvis_tilt	pelvis_list	pelvis_rotation	pelvis_tx	pelvis_ty	pelvis_tz	hip_flexion_r	hip_adduction_r	hip_rotation_r	knee_angle_r	ankle_angle_r	subtalar_angle_r	mtp_angle_r	hip_flexion_l	hip_adduction_l	hip_rotation_l	knee_angle_l	ankle_angle_l	subtalar_angle_l	mtp_angle_l	lumbar_extension	lumbar_bending	lumbar_rotation
      3.93500000	     22.77711378	      4.69062976	     -5.23668531	      0.96177547	      0.95771494	      0.03260420	    -36.58501359	     -8.00266171	     -8.83126869	    -32.91450602	    -13.02554890	      5.56828796	      0.00000000	     -7.17653921	      9.72279747	    -14.29106208	     -8.63683927	     -3.64508707	     -0.52441068	     26.27377539	    -29.42542725	    -10.28092673	      1.17629579
      3.94000000	     22.69276593	      4.98337931	     -5.39571810	      0.96833545	      0.95834578	      0.03219969	    -35.58661516	     -8.59987599	     -8.76120907	    -34.69983397	    -14.56031938	      5.17763037	      0.00000000	     -7.45558084	     10.13601857	    -13.91356853	     -8.70225543	     -3.27436009	     -0.75773921	     25.75828566	    -29.27097337	    -10.65553092	      1.20313480
      3.94500000	     22.66652885	      5.26812143	     -5.60460544	      0.97481351	      0.95903745	      0.03187023	    -34.61641584	     -9.21893704	     -8.64149754	    -36.47651290	    -15.79834457	      4.56800906	      0.00000000	     -7.79564416	     10.55119890	    -13.68217417	     -8.79071056	     -2.55318821	     -0.70744097	     22.90191710	    -29.17751590	    -11.04427968	      1.27547002
      3.95000000	     22.62306464	      5.52229494	     -5.76371603	      0.98126408	      0.95973495	      0.03145425	    -33.63755519	     -9.78524653	     -8.54008604	    -38.16944111	    -17.11820548	      4.39621209	      0.00000000	     -8.16933541	     10.93737739	    -13.37486514	     -8.74643885	     -2.21690093	     -0.88186166	     22.74191899	    -29.07710426	    -11.37344919	      1.31005563
      3.95500000	     22.58594487	      5.72917818	     -5.94934877	      0.98760783	      0.96047452	      0.03106872	    -32.63290118	    -10.31125477	     -8.35919090	    -39.83517145	    -18.22274303	      4.05442445	      0.00000000	     -8.58323430	     11.28896224	    -13.11004453	     -8.62427508	     -1.91994744	     -1.13209772	     22.44541653	    -28.98657438	    -11.66188291	      1.40180959
      3.96000000	     22.58806786	      5.92511530	     -6.18256989	      0.99393961	      0.96125411	      0.03078223	    -31.65102455	    -10.85090664	     -8.14636941	    -41.46645591	    -19.02404316	      3.86174284	      0.00000000	     -9.05111051	     11.63478406	    -12.98975176	     -8.47476641	     -1.63284244	     -1.23409756	     22.30035123	    -28.92673835	    -11.96396298	      1.53468345
      3.96500000	     22.50347293	      6.01848587	     -6.32751588	      1.00007351	      0.96200377	      0.03033960	    -30.56043835	    -11.21884141	     -7.87978193	    -43.04358206	    -19.80142574	      3.43384872	      0.00000000	     -9.45242742	     11.86555927	    -12.67999134	     -8.27410799	     -1.33242872	     -1.50087330	     21.81197219	    -28.81375158	    -12.10685380	      1.66632021
      3.97000000	     22.53963693	      6.12088662	     -6.57795014	      1.00627003	      0.96288760	      0.03007574	    -29.59334271	    -11.65535007	     -7.58745404	    -44.54463339	    -20.24365721	      3.31046058	      0.00000000	    -10.02539344	     12.13142415	    -12.63522570	     -7.98353582	     -1.08730420	     -1.49511926	     21.65878092	    -28.80317313	    -12.31320856	      1.86766160
      3.97500000	     22.50776991	      6.15054151	     -6.78408344	      1.01232585	      0.96372787	      0.02977944	    -28.53162940	    -11.97289677	     -7.25862800	    -46.00927355	    -20.53417804	      3.13340664	      0.00000000	    -10.51949919	     12.30599925	    -12.55005601	     -7.70364101	     -0.84544529	     -1.53826082	     21.46816606	    -28.73860977	    -12.42252417	      2.08734821
      3.98000000	     22.46636859	      6.13931855	     -6.99735143	      1.01828213	      0.96457796	      0.02949384	    -27.44026195	    -12.23881419	     -6.90123706	    -47.42681550	    -20.59226972	      2.94156297	      0.00000000	    -11.01779638	     12.44093713	    -12.50227090	     -7.39510620	     -0.61067001	     -1.54866889	     21.27007570	    -28.67318657	    -12.48741092	      2.33059466
      3.98500000	     22.42224909	      6.09144093	     -7.21371250	      1.02417834	      0.96543324	      0.02923363	    -26.33513594	    -12.45345488	     -6.53083899	    -48.78922742	    -20.42518297	      2.75514078	      0.00000000	    -11.52382049	     12.53768079	    -12.50198120	     -7.05960326	     -0.38734532	     -1.49390600	     21.06723973	    -28.61588032	    -12.51487455	      2.59413395
      3.99000000	     22.35991494	      6.00630043	     -7.42022788	      1.02997225	      0.96627442	      0.02897323	    -25.19799203	    -12.60846842	     -6.15350786	    -50.09972103	    -20.03724373	      2.57696703	      0.00000000	    -12.00404696	     12.58805627	    -12.53486225	     -6.73954885	     -0.15128209	     -1.37684875	     20.86902891	    -28.54841214	    -12.49543924	      2.87226090
      3.99500000	     22.29236444	      5.89458635	     -7.62297771	      1.03571557	      0.96710950	      0.02873614	    -24.05455679	    -12.72026784	     -5.79367005	    -51.33964699	    -19.48447230	      2.41852214	      0.00000000	    -12.48415405	     12.60741570	    -12.63060979	     -6.41112327	      0.10185063	     -1.16579065	     20.69219703	    -28.48223007	    -12.44699278	      3.16648663
      4.00000000	     22.21119864	      5.71800626	     -7.83446275	      1.04140644	      0.96795588	      0.02858238	    -22.89287453	    -12.73685591	     -5.39267217	    -52.50662487	    -18.77227151	      2.13750055	      0.00000000	    -12.92162881	     12.53972427	    -12.87619676	     -6.18444376	      0.77113533	     -0.44448295	     18.67062291	    -28.40710283	    -12.33752496	      3.48890959
      4.00500000	     22.11716167	      5.59000121	     -8.05085655	      1.04703157	      0.96872378	      0.02836527	    -21.70221431	    -12.81156349	     -5.05253673	    -53.63613541	    -17.92132972	      2.05868279	      0.00000000	    -13.38085196	     12.54789773	    -13.04428665	     -5.81795125	      0.94521101	     -0.26734873	     18.66390955	    -28.32602883	    -12.26944619	      3.78571588
      4.01000000	     21.99894416	      5.42131013	     -8.26363705	      1.05259908	      0.96946421	      0.02818365	    -20.48618431	    -12.81590490	     -4.70640424	    -54.69368424	    -16.94910525	      1.93321399	      0.00000000	    -13.79356263	     12.49871382	    -13.28963333	     -5.50509039	      1.17873675	      0.09741979	     18.67174797	    -28.22321683	    -12.15542026	      4.12437712
      4.01500000	     21.86454241	      5.24000524	     -8.47261581	      1.05810760	      0.97017985	      0.02802330	    -19.25466396	    -12.78284069	     -4.37274406	    -55.67800996	    -15.90867035	      1.77769534	      0.00000000	    -14.19258039	     12.43221198	    -13.58830458	     -5.18674263	      1.41748689	      0.53922829	     18.63973493	    -28.11492128	    -12.02540368	      4.45732688
      4.02000000	     21.72080773	      5.04176326	     -8.69673548	      1.06359703	      0.97085981	      0.02791285	    -18.01953330	    -12.71290408	     -4.03616593	    -56.58022434	    -14.80067601	      1.60603984	      0.00000000	    -14.57937765	     12.35076501	    -13.94750666	     -4.86692296	      1.65283717	      1.00370593	     18.60544008	    -27.99517702	    -11.88219342	      4.80344957
      4.02500000	     21.56022223	      4.85048608	     -8.90469874	      1.06907029	      0.97148912	      0.02778760	    -16.77755939	    -12.62850448	     -3.74775002	    -57.41046918	    -13.62474446	      1.41036641	      0.00000000	    -14.95114942	     12.27058020	    -14.30893647	     -4.54380125	      1.89785432	      1.54525438	     18.52903786	    -27.86264628	    -11.73432782	      5.14146603
      4.03000000	     21.39305753	      4.64905123	     -9.10658062	      1.07450106	      0.97208540	      0.02768860	    -15.54283276	    -12.50296318	     -3.47004588	    -58.15558053	    -12.41553769	      1.19825760	      0.00000000	    -15.31251632	     12.17731307	    -14.70410287	     -4.22393803	      2.13276849	      2.09390852	     18.45383471	    -27.73043412	    -11.57385711	      5.47180527
      4.03500000	     21.21534145	      4.45497653	     -9.29275426	      1.07990425	      0.97263296	      0.02756921	    -14.31223540	    -12.36240848	     -3.23174993	    -58.82103593	    -11.16836167	      0.96411563	      0.00000000	    -15.65587052	     12.08594417	    -15.09237293	     -3.92261048	      2.38361765	      2.67957592	     18.36226590	    -27.59304392	    -11.40763930	      5.78134168
      4.04000000	     21.01919674	      4.26312562	     -9.46970998	      1.08530244	      0.97313105	      0.02748331	    -13.08002233	    -12.19394259	     -3.01880347	    -59.40315427	     -9.88787662	      0.70275864	      0.00000000	    -15.97780481	     11.99043148	    -15.51361422	     -3.62142459	      2.62998651	      3.29912168	     18.23775221	    -27.43974670	    -11.24136014	      6.06358346
